#!OML:ASF E:\emotionWalksFemale\Project 1\Capture day 1\Session 1\Female1.ASF
:FULLY-SPECIFIED
:DEGREES
3448
root 9.84516 15.033 36.1806 -346.391 -19.7528 -11.886
lowerback 17.7749 4.70441 1.70615
upperback -1.1981 6.3787 -1.96354
thorax -10.8659 2.83701 -4.8081
lowerneck -8.02212 -0.568594 -2.67639
upperneck 2.86462 -1.09634 11.9937
head 2.25694 -0.200343 4.01601
rclavicle 4.49253e-014 3.18055e-014
rhumerus -55.3423 22.0068 -107.261
rradius 48.321
rwrist -10.5658
rhand 11.541 -57.0063
rfingers 7.12502
rthumb -143.414 1896.82
lclavicle 4.49253e-014 3.18055e-014
lhumerus -48.6677 12.684 61.7801
lradius 36.6083
lwrist -13.9602
lhand -4.05559 -30.9731
lfingers 7.12502
lthumb 21.7006 -2.16932
rfemur -11.0368 4.37848 28.5139
rtibia 37.0824
rfoot -13.9222 -9.50337
rtoes -26.2508
lfemur -40.32 -20.8348 3.41171
ltibia 40.926
lfoot -15.5206 3.77597
ltoes -38.8721
3449
root 9.87766 15.0564 36.2471 -346.181 -20.0674 -11.8863
lowerback 17.9886 4.74927 1.48162
upperback -1.33234 6.39135 -1.97234
thorax -11.1623 2.8413 -4.73037
lowerneck -7.49761 -0.575468 -3.05583
upperneck 2.55347 -1.05207 12.3221
head 2.07956 -0.200448 4.17899
rclavicle 6.44062e-014 -1.27222e-014
rhumerus -55.5299 21.5902 -106.9
rradius 48.846
rwrist -9.86582
rhand 11.5302 -56.8201
rfingers 7.12502
rthumb -143.424 1897.01
lclavicle 6.44062e-014 -1.27222e-014
lhumerus -47.7774 11.6461 62.621
lradius 37.2318
lwrist -13.1184
lhand -4.30056 -30.9838
lfingers 7.12502
lthumb 21.4653 -2.15308
rfemur -11.8611 4.38031 28.0475
rtibia 38.256
rfoot -12.921 -8.30264
rtoes -24.9254
lfemur -40.1306 -21.0103 3.19967
ltibia 40.8351
lfoot -15.5304 4.29438
ltoes -38.7547
3450
root 9.91213 15.0788 36.31 -345.886 -20.2732 -11.8107
lowerback 18.1653 4.64061 0.935398
upperback -1.32182 6.12851 -1.94853
thorax -11.3338 2.74305 -4.35035
lowerneck -8.04911 -0.41564 -2.94303
upperneck 2.73452 -0.865646 12.2878
head 2.20887 -0.0838969 4.16034
rclavicle -1.47101e-014 -2.06736e-014
rhumerus -55.4511 22.0309 -106.83
rradius 49.0489
rwrist -8.83215
rhand 11.7077 -56.158
rfingers 7.12502
rthumb -143.256 1897.71
lclavicle -1.47101e-014 -2.06736e-014
lhumerus -46.8958 11.1822 63.2078
lradius 38.3233
lwrist -12.2017
lhand -5.06774 -31.0552
lfingers 7.12502
lthumb 20.7283 -2.14222
rfemur -12.825 4.34242 27.5348
rtibia 39.428
rfoot -11.9038 -7.00238
rtoes -23.7851
lfemur -40.09 -21.0986 2.93151
ltibia 40.6803
lfoot -15.4842 4.73395
ltoes -38.7351
3451
root 9.94171 15.1017 36.3696 -345.4 -20.5021 -11.7596
lowerback 18.0955 4.62223 0.431473
upperback -1.41351 5.99595 -1.93307
thorax -11.4615 2.7072 -4.01807
lowerneck -8.46734 -0.345969 -2.81583
upperneck 2.98545 -0.800183 12.0706
head 2.34479 -0.0350492 4.07851
rclavicle -1.51076e-014 6.36111e-015
rhumerus -55.6044 22.313 -106.786
rradius 49.5079
rwrist -8.18167
rhand 11.3631 -55.9807
rfingers 7.12502
rthumb -143.582 1897.81
lclavicle -1.51076e-014 6.36111e-015
lhumerus -46.1171 10.5248 63.8336
lradius 39.3808
lwrist -11.4501
lhand -6.10347 -31.4808
lfingers 7.12502
lthumb 19.7329 -2.46241
rfemur -14.022 4.4669 27.0338
rtibia 40.6101
rfoot -10.8819 -6.18223
rtoes -24.0037
lfemur -40.1971 -20.8525 2.69905
ltibia 40.4548
lfoot -15.4396 4.90478
ltoes -38.7474
3452
root 9.96179 15.1246 36.4263 -344.959 -20.8065 -11.8578
lowerback 17.8719 4.65558 -0.109812
upperback -1.43376 5.93803 -1.81537
thorax -11.4295 2.71958 -3.55195
lowerneck -8.54238 -0.267693 -2.83442
upperneck 2.94834 -0.68422 11.9721
head 2.33638 0.0200669 4.05669
rclavicle 6.83819e-014 -2.8625e-014
rhumerus -55.9172 22.7501 -106.804
rradius 50.2499
rwrist -7.88113
rhand 10.6912 -56.7658
rfingers 7.12502
rthumb -144.218 1896.86
lclavicle 6.83819e-014 -2.8625e-014
lhumerus -45.1824 9.84723 64.49
lradius 40.1068
lwrist -10.5457
lhand -7.1175 -32.0127
lfingers 7.12502
lthumb 18.7578 -2.89712
rfemur -15.0601 4.77097 26.6845
rtibia 41.7313
rfoot -10.0884 -5.3671
rtoes -23.2453
lfemur -40.1265 -20.5212 2.58866
ltibia 40.2172
lfoot -15.4752 4.95738
ltoes -38.8559
3453
root 9.98618 15.1493 36.4855 -344.747 -21.0851 -11.8574
lowerback 17.6698 4.63832 -0.600576
upperback -1.29855 5.82045 -1.73261
thorax -11.2262 2.70353 -3.1279
lowerneck -8.45659 -0.167992 -3.05448
upperneck 2.66164 -0.508408 12.1687
head 2.2256 0.0986663 4.1594
rclavicle 1.23246e-014 -7.95139e-015
rhumerus -56.0544 23.3176 -106.814
rradius 50.9818
rwrist -7.70799
rhand 10.708 -58.5203
rfingers 7.12502
rthumb -144.202 1895.11
lclavicle 1.23246e-014 -7.95139e-015
lhumerus -44.0028 9.39075 64.9974
lradius 40.7333
lwrist -9.75361
lhand -8.19423 -32.7603
lfingers 7.12502
lthumb 17.7219 -3.54788
rfemur -15.832 4.98113 26.2605
rtibia 42.7764
rfoot -9.66373 -4.69131
rtoes -23.1376
lfemur -39.8781 -20.4868 2.34723
ltibia 39.9854
lfoot -15.5034 5.15249
ltoes -38.572
3454
root 10.0203 15.1745 36.5472 -344.62 -21.3243 -11.9949
lowerback 17.709 4.54715 -0.692507
upperback -1.15264 5.67653 -1.73921
thorax -11.0981 2.64358 -3.03905
lowerneck -8.57354 -0.066195 -3.13679
upperneck 2.55214 -0.366249 12.449
head 2.20342 0.176848 4.26571
rclavicle 5.04913e-014 -5.08889e-014
rhumerus -56.0101 23.5612 -106.748
rradius 51.5486
rwrist -7.33495
rhand 10.6169 -57.643
rfingers 7.12502
rthumb -144.289 1895.97
lclavicle 5.04913e-014 -5.08889e-014
lhumerus -42.7737 9.05707 65.2135
lradius 41.3675
lwrist -8.97336
lhand -8.95882 -33.3429
lfingers 7.12502
lthumb 16.9861 -4.06564
rfemur -16.4322 5.1843 25.9686
rtibia 43.7326
rfoot -9.27868 -4.25386
rtoes -24.1811
lfemur -39.547 -20.6105 2.20464
ltibia 39.8102
lfoot -15.4358 5.50315
ltoes -38.2231
3455
root 10.0489 15.1965 36.6072 -344.377 -21.5478 -12.3253
lowerback 17.7982 4.61731 -0.455021
upperback -1.10069 5.82229 -1.70226
thorax -11.0651 2.69992 -3.17401
lowerneck -8.79604 -0.155184 -3.46752
upperneck 2.67131 -0.478528 12.7753
head 2.28753 0.138805 4.41924
rclavicle 0 -1.59028e-015
rhumerus -56.0694 23.252 -106.324
rradius 52.0886
rwrist -7.23763
rhand 10.4243 -57.4126
rfingers 7.12502
rthumb -144.471 1896.16
lclavicle 0 -1.59028e-015
lhumerus -41.4588 8.33192 65.7424
lradius 41.9488
lwrist -7.85759
lhand -9.62395 -33.6009
lfingers 7.12502
lthumb 16.3457 -4.26978
rfemur -17.0621 5.44629 25.91
rtibia 44.6878
rfoot -8.76946 -3.98545
rtoes -25.6757
lfemur -39.2663 -20.5308 2.2628
ltibia 39.6571
lfoot -15.5155 5.54646
ltoes -36.9852
3456
root 10.0769 15.2096 36.6641 -344.225 -21.65 -12.6559
lowerback 18.0567 4.55803 -0.320514
upperback -1.09673 5.77402 -1.64732
thorax -11.2025 2.66605 -3.20048
lowerneck -8.61996 -0.0139939 -2.899
upperneck 2.53923 -0.316803 12.3585
head 2.2026 0.201958 4.20047
rclavicle -7.63333e-014 -1.59028e-015
rhumerus -56.2942 23.3021 -106.253
rradius 52.5573
rwrist -7.48056
rhand 10.5505 -57.3813
rfingers 7.12502
rthumb -144.352 1896.22
lclavicle -7.63333e-014 -1.59028e-015
lhumerus -40.3172 7.76164 65.9518
lradius 42.3855
lwrist -6.74968
lhand -10.5045 -34.0741
lfingers 7.12502
lthumb 15.4978 -4.6752
rfemur -17.5112 5.50477 25.9303
rtibia 45.4927
rfoot -8.26279 -3.61328
rtoes -27.0834
lfemur -39.0459 -20.3972 2.29347
ltibia 39.6754
lfoot -15.7684 5.33172
ltoes -35.3291
